<?xml version="1.0" encoding="utf-8"?>
<!-- Generator: Adobe Illustrator 21.1.0, SVG Export Plug-In . SVG Version: 6.00 Build 0)  -->
<svg version="1.1" id="Layer_1" xmlns="http://www.w3.org/2000/svg" xmlns:xlink="http://www.w3.org/1999/xlink" x="0px" y="0px"
	 viewBox="0 0 832 108.7" style="enable-background:new 0 0 832 108.7;" xml:space="preserve">
<style type="text/css">
	.st0{fill:#FFFFFF;}
</style>
<path class="st0" d="M119.2,62.6l-17.3-17.7c-6.3-6.5-16.6-6.5-22.9,0L61.6,62.6c-6.3,6.5-6.3,16.9,0,23.4l17.3,17.7
	c6.3,6.5,16.6,6.5,22.9,0l17.3-17.7C125.5,79.5,125.5,69,119.2,62.6z M109.7,81.9l-11.7,12c-4.3,4.4-11.2,4.4-15.5,0l-11.7-12
	c-4.3-4.4-4.3-11.5,0-15.8l11.7-12c4.3-4.4,11.2-4.4,15.5,0l11.7,12C114,70.5,114,77.6,109.7,81.9z"/>
<g>
	<path class="st0" d="M149.4,28.1h33.7c10.5,0,18.8,0.7,26.2,4.9c9.5,5.4,15,15.6,15,29.2c0,13-5.2,22.8-14.4,27.9
		c-7.9,4.4-16.4,4.6-26.7,4.6h-33.7V28.1z M168.1,42.7v37.5h12.1c16.8,0,24.4-5.3,24.4-18.5c0-12.8-8-19-24.4-19H168.1z"/>
	<path class="st0" d="M244.4,95.8c-11.9,0-18.4-5.3-18.4-14.1c0-5.6,2.5-10.2,7.2-13c4.6-2.9,12.5-3.2,23.8-3.2h8.6
		c0-0.5,0.1-0.9,0.1-1.3c0-5.1-3.1-7.8-8.7-7.8c-6.2,0-9.3,1.5-10,5.6h-18c1.2-10.4,10.4-14.9,28.3-14.9c17.3,0,25.5,5.5,25.5,17.8
		v23.7c0,2.2,0.2,4.2,0.9,6.1h-16.6c-0.7-1.7-1.1-3.6-1.1-6v-0.8C262.3,92.8,254.9,95.8,244.4,95.8z M264.2,74
		c-13.5,0-19.7,1.4-19.7,6.6c0,3.4,3,5.2,8.9,5.2c7.9,0,12.2-3.8,12.2-10.7v-1H264.2z"/>
	<path class="st0" d="M312.3,48.2h14.6v11h-14.6v18.1c0,4.7,1.8,6.4,7.3,6.4c1.8,0,4.3-0.2,7.3-0.5v11.3c-3.9,0.8-7.7,1.2-11.5,1.2
		c-14,0-20.5-4.5-20.5-14.7V59.2h-10.6v-11H295v-9.9l9.4-3c2.3-0.7,4.9-1.9,7.9-3.4V48.2z"/>
	<path class="st0" d="M345.3,95.8c-11.9,0-18.4-5.3-18.4-14.1c0-5.6,2.5-10.2,7.2-13c4.6-2.9,12.5-3.2,23.8-3.2h8.6
		c0-0.5,0.1-0.9,0.1-1.3c0-5.1-3.1-7.8-8.7-7.8c-6.2,0-9.3,1.5-10,5.6h-18c1.2-10.4,10.4-14.9,28.3-14.9c17.3,0,25.5,5.5,25.5,17.8
		v23.7c0,2.2,0.2,4.2,0.9,6.1h-16.6c-0.7-1.7-1.1-3.6-1.1-6v-0.8C363.2,92.8,355.8,95.8,345.3,95.8z M365.1,74
		c-13.5,0-19.7,1.4-19.7,6.6c0,3.4,3,5.2,8.9,5.2c7.9,0,12.2-3.8,12.2-10.7v-1H365.1z"/>
	<path class="st0" d="M409,28.1v26.8c5.4-5.3,11.9-7.9,19.9-7.9c14.7,0,23.9,9.3,23.9,24.1c0,15.7-8.9,24.7-23.5,24.7
		c-8.3,0-15.4-3.3-20.3-9.8v1.5c0,2.4-0.2,4.8-0.6,7.2h-18c0.5-3.6,0.7-7.1,0.7-10.5V28.1H409z M421.9,56.4c-8.5,0-13,5-13,14.4
		c0,9.1,4.8,14.3,12.8,14.3c8.1,0,13-5.3,13-14.9C434.6,61.8,429.7,56.4,421.9,56.4z"/>
	<path class="st0" d="M472.7,95.8c-11.9,0-18.4-5.3-18.4-14.1c0-5.6,2.5-10.2,7.2-13c4.6-2.9,12.5-3.2,23.8-3.2h8.6
		c0-0.5,0.1-0.9,0.1-1.3c0-5.1-3.1-7.8-8.7-7.8c-6.2,0-9.3,1.5-10,5.6h-18.1c1.2-10.4,10.4-14.9,28.3-14.9
		c17.3,0,25.5,5.5,25.5,17.8v23.7c0,2.2,0.2,4.2,0.9,6.1h-16.6c-0.7-1.7-1.1-3.6-1.1-6v-0.8C490.7,92.8,483.3,95.8,472.7,95.8z
		 M492.5,74c-13.5,0-19.7,1.4-19.7,6.6c0,3.4,3,5.2,8.9,5.2c7.9,0,12.2-3.8,12.2-10.7v-1H492.5z"/>
	<path class="st0" d="M550.6,62.6c-9.2,0-14.2,5.5-14.2,15.9v16.2h-17.8V59.2c0-3.7-0.1-7.3-0.6-10.9h17.4c0.3,2.3,0.4,4.6,0.4,7
		v2.1c3.7-6.7,9.8-9.7,18.4-9.7h1.8V63C554.1,62.7,552.2,62.6,550.6,62.6z"/>
	<path class="st0" d="M591.6,62.6c-9.2,0-14.2,5.5-14.2,15.9v16.2h-17.8V59.2c0-3.7-0.1-7.3-0.6-10.9h17.4c0.3,2.3,0.4,4.6,0.4,7
		v2.1c3.7-6.7,9.8-9.7,18.4-9.7h1.9V63C595,62.7,593.2,62.6,591.6,62.6z"/>
	<path class="st0" d="M615.1,95.8c-11.9,0-18.4-5.3-18.4-14.1c0-5.6,2.5-10.2,7.2-13c4.6-2.9,12.5-3.2,23.8-3.2h8.6
		c0-0.5,0.1-0.9,0.1-1.3c0-5.1-3-7.8-8.7-7.8c-6.2,0-9.3,1.5-10,5.6h-18c1.2-10.4,10.4-14.9,28.3-14.9c17.3,0,25.5,5.5,25.5,17.8
		v23.7c0,2.2,0.2,4.2,0.9,6.1h-16.6c-0.7-1.7-1.1-3.6-1.1-6v-0.8C633,92.8,625.6,95.8,615.1,95.8z M634.9,74
		c-13.5,0-19.7,1.4-19.7,6.6c0,3.4,3,5.2,8.9,5.2c7.9,0,12.2-3.8,12.2-10.7v-1H634.9z"/>
	<path class="st0" d="M688.1,57c-7.2,0-11.6,5.3-11.6,14.9c0,8.5,4.1,13.2,11.5,13.2c6.7,0,10.3-2.9,10.4-8.6h18.3
		c-0.7,13.1-10.1,19.2-28.9,19.2c-19.4,0-29.7-8.5-29.7-23.5c0-15.9,10.8-25.3,30.5-25.3c16.8,0,26.3,6.2,27.5,17.7h-17.8
		C697.5,59.5,694.1,57,688.1,57z"/>
	<path class="st0" d="M720.9,28.1h17.8v39.6l22-19.4h21.2l-22.8,20.1l25.1,26.4h-23l-22.6-24.8v24.8h-17.8V28.1z"/>
	<path class="st0" d="M797.8,80c0,3.9,3,6.2,8.6,6.2c5.3,0,8.1-1.9,8.1-4.8c0-4.2-4.2-4.2-12.3-5.3c-14-1.9-20.1-4.5-20.1-14.3
		c0-9.4,8-14.7,23.4-14.7c17.6,0,25.7,4.4,25.7,15.3h-17.4v-0.2c0-4-2.5-5.7-7.7-5.7c-4.5,0-6.9,1.4-6.9,3.8c0,3.8,4.2,3.9,13,5.4
		C825.6,67.9,832,70,832,79.3c0,11.3-8.5,16.5-26.2,16.5c-17.1,0-25-4.3-25.7-15.8H797.8z"/>
</g>
<path class="st0" d="M62.6,62.9L45.8,46.1c-6.6-6.6-17.4-6.6-24,0L5,62.9c-6.6,6.6-6.6,17.4,0,24l16.8,16.8c6.6,6.6,17.4,6.6,24,0
	l16.8-16.8C69.2,80.3,69.2,69.5,62.6,62.9z M41.9,94.4c-4.7,4.7-12.3,4.7-17,0L13.4,83c-4.7-4.7-4.7-12.3,0-17l11.5-11.5
	c4.7-4.7,12.3-4.7,17,0L53.3,66c4.7,4.7,4.7,12.3,0,17L41.9,94.4z"/>
<path class="st0" d="M91.1,22.5L73.8,4.8c-6.3-6.5-16.6-6.5-22.9,0L33.5,22.5c-6.3,6.5-6.3,16.9,0,23.4l17.3,17.7
	c6.3,6.5,16.6,6.5,22.9,0l17.3-17.7C97.4,39.4,97.4,29,91.1,22.5z M82.2,41.9l-11.7,12c-4.3,4.4-11.2,4.4-15.5,0l-11.7-12
	c-4.3-4.4-4.3-11.4,0-15.8l11.7-12c4.3-4.4,11.2-4.4,15.5,0l11.7,12C86.5,30.4,86.5,37.5,82.2,41.9z"/>
</svg>
